<?xml version="1.0" encoding="UTF-8" standalone="no"?>
<!-- Created with Inkscape (http://www.inkscape.org/) -->

<svg
   xmlns:dc="http://purl.org/dc/elements/1.1/"
   xmlns:cc="http://creativecommons.org/ns#"
   xmlns:rdf="http://www.w3.org/1999/02/22-rdf-syntax-ns#"
   xmlns:svg="http://www.w3.org/2000/svg"
   xmlns="http://www.w3.org/2000/svg"
   xmlns:sodipodi="http://sodipodi.sourceforge.net/DTD/sodipodi-0.dtd"
   xmlns:inkscape="http://www.inkscape.org/namespaces/inkscape"
   version="1.1"
   id="svg2"
   xml:space="preserve"
   width="222.75391"
   height="120"
   viewBox="0 0 222.7539 120"
   sodipodi:docname="cim.ai.svg"
   inkscape:version="0.92.3 (2405546, 2018-03-11)"><metadata
     id="metadata8"><rdf:RDF><cc:Work
         rdf:about=""><dc:format>image/svg+xml</dc:format><dc:type
           rdf:resource="http://purl.org/dc/dcmitype/StillImage" /><dc:title /></cc:Work></rdf:RDF></metadata><defs
     id="defs6"><clipPath
       clipPathUnits="userSpaceOnUse"
       id="clipPath18"><path
         d="M 0,95.557 H 142 V 0 H 0 Z"
         id="path16"
         inkscape:connector-curvature="0" /></clipPath><clipPath
       clipPathUnits="userSpaceOnUse"
       id="clipPath38"><path
         d="M 0,95.557 H 142 V 0 H 0 Z"
         id="path36"
         inkscape:connector-curvature="0" /></clipPath><linearGradient
       x1="0"
       y1="0"
       x2="1"
       y2="0"
       gradientUnits="userSpaceOnUse"
       gradientTransform="matrix(-23.421122,-0.0765396,-0.0765396,23.421122,66.587067,20.963551)"
       spreadMethod="pad"
       id="linearGradient112"><stop
         style="stop-opacity:1;stop-color:#3f6ec1"
         offset="0"
         id="stop108" /><stop
         style="stop-opacity:1;stop-color:#518df8"
         offset="1"
         id="stop110" /></linearGradient><clipPath
       clipPathUnits="userSpaceOnUse"
       id="clipPath122"><path
         d="M 0,95.557 H 142 V 0 H 0 Z"
         id="path120"
         inkscape:connector-curvature="0" /></clipPath><linearGradient
       x1="0"
       y1="0"
       x2="1"
       y2="0"
       gradientUnits="userSpaceOnUse"
       gradientTransform="matrix(27.8186,0,0,27.8186,-22.2965,85.282)"
       spreadMethod="pad"
       id="linearGradient130"><stop
         style="stop-opacity:1;stop-color:#3f6ec1"
         offset="0"
         id="stop126" /><stop
         style="stop-opacity:1;stop-color:#518df8"
         offset="1"
         id="stop128" /></linearGradient></defs><sodipodi:namedview
     pagecolor="#ffffff"
     bordercolor="#666666"
     borderopacity="1"
     objecttolerance="10"
     gridtolerance="10"
     guidetolerance="10"
     inkscape:pageopacity="0"
     inkscape:pageshadow="2"
     inkscape:window-width="1920"
     inkscape:window-height="1017"
     id="namedview4"
     showgrid="false"
     inkscape:zoom="4"
     inkscape:cx="40.67894"
     inkscape:cy="54.067274"
     inkscape:window-x="1912"
     inkscape:window-y="-8"
     inkscape:window-maximized="1"
     inkscape:current-layer="g10"
     fit-margin-top="10"
     fit-margin-right="10"
     fit-margin-bottom="10"
     fit-margin-left="10"
     inkscape:snap-grids="true"
     inkscape:snap-to-guides="true"
     inkscape:snap-page="false"
     inkscape:snap-global="false"><inkscape:grid
       type="xygrid"
       id="grid76"
       originx="9.8052268"
       originy="-2.5946853" /></sodipodi:namedview><g
     id="g10"
     inkscape:groupmode="layer"
     inkscape:label="text"
     transform="matrix(1.3333333,0,0,-1.3333333,7.2402943,118.85758)"
     style="display:inline"><text
   transform="matrix(1,0,0,-1,78.8887,37.9658)"
   style="font-variant:normal;font-weight:normal;font-stretch:normal;font-size:22.22089958px;font-family:'Alfa Slab One';-inkscape-font-specification:AlfaSlabOne-Regular;writing-mode:lr-tb;fill:#083b66;fill-opacity:1;fill-rule:nonzero;stroke:none"
   id="text30"><tspan
     sodipodi:role="line"
     id="tspan28"
     style="font-style:normal;font-variant:normal;font-weight:normal;font-stretch:normal;font-family:'Holtwood One SC';-inkscape-font-specification:'Holtwood One SC'"
     x="0"
     y="20.2728" /></text>


<text
   xml:space="preserve"
   style="font-style:normal;font-weight:normal;font-size:29.60745049px;line-height:1.25;font-family:'Copperplate Gothic Bold';letter-spacing:0px;word-spacing:0px;fill:#083b66;fill-opacity:1;stroke:#083b66;stroke-width:0.74018627;stroke-opacity:1;-inkscape-font-specification:'Copperplate Gothic Bold, ';font-stretch:normal;font-variant:normal;"
   x="82.523499"
   y="-29.789803"
   id="text152"
   transform="scale(1.0132584,-0.98691504)"><tspan
     sodipodi:role="line"
     id="tspan150"
     x="82.523499"
     y="-29.789803"
     style="font-style:normal;font-variant:normal;font-weight:normal;font-stretch:normal;font-size:29.60745049px;font-family:'Copperplate Gothic Bold';-inkscape-font-specification:'Copperplate Gothic Bold, ';fill:#083b66;fill-opacity:1;stroke:#083b66;stroke-width:0.74018627;stroke-opacity:1;">Cim</tspan></text>


<text
   xml:space="preserve"
   style="font-style:normal;font-weight:normal;font-size:30px;line-height:1.25;font-family:sans-serif;letter-spacing:0px;word-spacing:0px;fill:#000000;fill-opacity:1;stroke:none;stroke-width:0.75"
   x="-35.576302"
   y="107.80284"
   id="text118"
   transform="scale(1,-1)"><tspan
     sodipodi:role="line"
     id="tspan116"
     x="-35.576302"
     y="135.17274"
     style="stroke-width:0.75" /><tspan
     sodipodi:role="line"
     x="-35.576302"
     y="172.67274"
     style="stroke-width:0.75"
     id="tspan120" /></text>


</g><g
     inkscape:groupmode="layer"
     id="layer2"
     inkscape:label="logo"
     style="display:inline"
     transform="translate(0,-0.21865845)"><path
       inkscape:connector-curvature="0"
       id="path22"
       style="fill:#ffffff;fill-opacity:0.00990098;fill-rule:nonzero;stroke:none;stroke-width:1.47085869"
       d="m 106.64647,59.999975 c 0,25.761886 -20.884886,46.646445 -46.647178,46.646445 -25.762292,0 -46.645708,-20.884559 -46.645708,-46.646445 0,-25.761886 20.883416,-46.646443 46.645708,-46.646443 25.762292,0 46.647178,20.884557 46.647178,46.646443" /><path
       inkscape:connector-curvature="0"
       id="path26"
       style="opacity:1;fill:#083b66;fill-opacity:1;stroke:#000000;stroke-width:6.97955799;stroke-linecap:butt;stroke-linejoin:miter;stroke-miterlimit:10;stroke-dasharray:none;stroke-opacity:1"
       d="m 106.51022,60.218656 c 0,25.686654 -20.823898,46.510224 -46.510955,46.510224 -25.687057,0 -46.509487,-20.82357 -46.509487,-46.510224 0,-25.686654 20.82243,-46.510222 46.509487,-46.510222 25.687057,0 46.510955,20.823568 46.510955,46.510222 z" /><path
       inkscape:connector-curvature="0"
       id="path42"
       style="fill:none;fill-opacity:1;fill-rule:nonzero;stroke:#ffa500;stroke-width:2;stroke-miterlimit:7.42857122;stroke-dasharray:none;stroke-opacity:1"
       d="m 65.294572,35.836899 c 0,2.924044 -2.371043,5.29505 -5.295134,5.29505 -2.924089,0 -5.295132,-2.371006 -5.295132,-5.29505 0,-2.924044 2.371043,-5.295049 5.295132,-5.295049 2.924091,0 5.295134,2.371005 5.295134,5.295049" /><path
       inkscape:connector-curvature="0"
       id="path46"
       style="fill:none;fill-opacity:1;fill-rule:nonzero;stroke:#ffa500;stroke-width:2;stroke-miterlimit:7.42857122;stroke-dasharray:none;stroke-opacity:1"
       d="m 45.870553,46.62821 c 0,2.924044 -2.371042,5.295049 -5.295133,5.295049 -2.924089,0 -5.295132,-2.371005 -5.295132,-5.295049 0,-2.924044 2.371043,-5.295049 5.295132,-5.295049 2.924091,0 5.295133,2.371005 5.295133,5.295049" /><path
       inkscape:connector-curvature="0"
       id="path50"
       style="fill:none;fill-opacity:1;fill-rule:nonzero;stroke:#ffa500;stroke-width:2;stroke-miterlimit:7.42857122;stroke-dasharray:none;stroke-opacity:1"
       d="m 38.016842,63.982145 c 0,2.924044 -2.371043,5.29505 -5.295134,5.29505 -2.924089,0 -5.295132,-2.371006 -5.295132,-5.29505 0,-2.924044 2.371043,-5.295049 5.295132,-5.295049 2.924091,0 5.295134,2.371005 5.295134,5.295049" /><path
       inkscape:connector-curvature="0"
       id="path54"
       style="fill:none;fill-opacity:1;fill-rule:nonzero;stroke:#ffa500;stroke-width:2;stroke-miterlimit:7.42857122;stroke-dasharray:none;stroke-opacity:1"
       d="m 90.98185,63.982145 c 0,-2.924044 -2.371043,-5.295049 -5.295134,-5.295049 -2.924089,0 -5.295132,2.371005 -5.295132,5.295049 0,2.924044 2.371043,5.29505 5.295132,5.29505 2.924091,0 5.295134,-2.371006 5.295134,-5.29505" /><path
       inkscape:connector-curvature="0"
       id="path58"
       style="fill:none;fill-opacity:1;fill-rule:nonzero;stroke:#ffa500;stroke-width:2;stroke-miterlimit:7.42857122;stroke-dasharray:none;stroke-opacity:1"
       d="m 83.127991,46.62821 c 0,-2.924044 -2.371043,-5.295049 -5.295133,-5.295049 -2.924089,0 -5.295132,2.371005 -5.295132,5.295049 0,2.924044 2.371043,5.295049 5.295132,5.295049 2.92409,0 5.295133,-2.371005 5.295133,-5.295049" /><path
       inkscape:connector-curvature="0"
       id="path62"
       style="fill:none;stroke:#ffa500;stroke-width:2;stroke-linecap:butt;stroke-linejoin:miter;stroke-miterlimit:7.42857122;stroke-dasharray:none;stroke-opacity:1"
       d="m 60.005176,65.214127 h -0.01027 c -2.104816,0 -3.809555,-1.706183 -3.809555,-3.809494 V 49.954088 h 7.629404 v 11.450545 c 0,2.103311 -1.706209,3.809494 -3.809553,3.809494 z" /><path
       inkscape:connector-curvature="0"
       id="path66"
       style="fill:none;stroke:#ffa500;stroke-width:2;stroke-linecap:round;stroke-linejoin:round;stroke-miterlimit:7.42857122;stroke-dasharray:none;stroke-opacity:1"
       d="M 59.999733,49.95409 V 46.276972" /><path
       inkscape:connector-curvature="0"
       id="path70"
       style="fill:none;stroke:#ffa500;stroke-width:2;stroke-linecap:round;stroke-linejoin:round;stroke-miterlimit:7.42857122;stroke-dasharray:none;stroke-opacity:1"
       d="m 49.808368,78.671053 h -0.539809 c -1.635608,0 -2.960862,-1.325233 -2.960862,-2.960815 v -7.926394 h 6.461532 v 7.926394 c 0,1.635582 -1.325253,2.960815 -2.960861,2.960815 z" /><path
       inkscape:connector-curvature="0"
       id="path74"
       style="fill:none;stroke:#ffa500;stroke-width:2;stroke-linecap:round;stroke-linejoin:round;stroke-miterlimit:7.42857122;stroke-dasharray:none;stroke-opacity:1"
       d="m 49.538757,67.783697 v -2.62399" /><path
       inkscape:connector-curvature="0"
       id="path78"
       style="fill:none;stroke:#ffa500;stroke-width:2;stroke-linecap:round;stroke-linejoin:round;stroke-miterlimit:7.42857122;stroke-dasharray:none;stroke-opacity:1"
       d="m 72.672614,69.421053 h -0.539809 c -1.635608,0 -2.960862,-1.325233 -2.960862,-2.960814 v -7.926395 h 6.461532 v 7.926395 c 0,1.635581 -1.325253,2.960814 -2.960861,2.960814 z" /><path
       inkscape:connector-curvature="0"
       id="path82"
       style="fill:none;stroke:#ffa500;stroke-width:2;stroke-linecap:round;stroke-linejoin:round;stroke-miterlimit:7.42857122;stroke-dasharray:none;stroke-opacity:1"
       d="M 72.403003,58.533698 V 55.909707" /><path
       inkscape:connector-curvature="0"
       id="path86"
       style="fill:none;stroke:#ffa500;stroke-width:2;stroke-linecap:butt;stroke-linejoin:miter;stroke-miterlimit:7.42857122;stroke-dasharray:none;stroke-opacity:1"
       d="M 60.005176,91.958418 V 65.214421" /><path
       inkscape:connector-curvature="0"
       id="path90"
       style="fill:none;stroke:#ffa500;stroke-width:2;stroke-linecap:round;stroke-linejoin:round;stroke-miterlimit:7.42857122;stroke-dasharray:none;stroke-opacity:1"
       d="m 49.774016,78.636237 v 16.032251 c 0,0.730604 0.666038,1.323557 1.486694,1.323557 h 4.95812" /><path
       inkscape:connector-curvature="0"
       id="path94"
       style="fill:#ffa500;fill-opacity:1;fill-rule:nonzero;stroke:#ffa500;stroke-width:2;stroke-miterlimit:7.42857122;stroke-dasharray:none;stroke-opacity:1"
       d="m 66.56761,96.36362 c 0,3.62711 -2.940269,6.56733 -6.567436,6.56733 -3.627165,0 -6.568906,-2.94022 -6.568906,-6.56733 0,-3.627109 2.941741,-6.567331 6.568906,-6.567331 3.627167,0 6.567436,2.940222 6.567436,6.567331" /></g><g
     inkscape:groupmode="layer"
     id="layer1"
     inkscape:label="powershell"
     style="display:inline"
     transform="translate(0,-0.21865845)"><g
       style="display:inline"
       id="g139"
       transform="matrix(1.4359562,0,0,-1.4359562,-76.059958,111.14224)"><g
         transform="matrix(1.2541723,0,0,1.3838875,43.509317,-13.788474)"
         id="g96"><g
           id="g98"><g
             id="g104"><g
               id="g106"><path
                 inkscape:connector-curvature="0"
                 id="path114"
                 style="fill:url(#linearGradient112);stroke:none"
                 d="m 46.738,31.201 c -0.581,0 -1.086,-0.397 -1.226,-0.96 v 0 L 41.066,12.216 c -0.196,-0.797 0.406,-1.565 1.227,-1.565 v 0 h 20.918 c 0.588,0 1.098,0.406 1.231,0.979 v 0 l 4.143,18.025 c 0.182,0.791 -0.419,1.546 -1.231,1.546 v 0 z" /></g></g></g></g><g
         transform="matrix(1.2516859,0,0,1.3861652,43.540304,-13.960345)"
         id="g116"><g
           clip-path="url(#clipPath122)"
           id="g118"><g
             transform="translate(63.2106,10.6502)"
             id="g124"><path
               inkscape:connector-curvature="0"
               id="path132"
               style="fill:none;stroke:url(#linearGradient130);stroke-width:0.23;stroke-linecap:butt;stroke-linejoin:miter;stroke-miterlimit:10;stroke-dasharray:none;stroke-opacity:1"
               d="m 0,0 h -20.918 c -0.82,0 -1.423,0.769 -1.226,1.565 l 4.446,18.025 c 0.139,0.564 0.645,0.961 1.226,0.961 H 4.144 c 0.812,0 1.412,-0.755 1.231,-1.546 L 1.231,0.98 C 1.099,0.406 0.588,0 0,0 Z" /></g><g
             transform="translate(47.54,12.7406)"
             id="g134"><path
               inkscape:connector-curvature="0"
               id="path136"
               style="fill:#3462a8;fill-opacity:1;fill-rule:nonzero;stroke:none"
               d="m 0,0 c -0.391,0 -0.776,0.181 -1.023,0.521 -0.41,0.565 -0.284,1.355 0.28,1.764 l 8.26,5.994 -5.085,5.471 c -0.475,0.511 -0.446,1.31 0.065,1.785 0.511,0.474 1.31,0.445 1.785,-0.066 L 10.338,8.954 C 10.584,8.689 10.705,8.332 10.67,7.972 10.635,7.612 10.448,7.284 10.155,7.072 L 0.741,0.241 C 0.517,0.078 0.257,0 0,0" /></g><g
             transform="translate(47.3104,12.9893)"
             id="g138"><path
               inkscape:connector-curvature="0"
               id="path140"
               style="fill:#ffffff;fill-opacity:1;fill-rule:nonzero;stroke:none"
               d="m 0,0 c -0.391,0 -0.776,0.181 -1.023,0.521 -0.41,0.565 -0.284,1.355 0.28,1.764 l 8.26,5.994 -5.085,5.471 c -0.475,0.511 -0.446,1.31 0.065,1.785 0.511,0.474 1.31,0.445 1.785,-0.066 L 10.338,8.954 C 10.584,8.689 10.705,8.332 10.67,7.972 10.635,7.612 10.448,7.284 10.155,7.072 L 0.741,0.241 C 0.517,0.078 0.257,0 0,0" /></g><g
             transform="translate(59.8177,13.2493)"
             id="g142"><path
               inkscape:connector-curvature="0"
               id="path144"
               style="fill:#3462a8;fill-opacity:1;fill-rule:nonzero;stroke:none"
               d="m 0,0 h -4.958 c -0.602,0 -1.091,0.488 -1.091,1.091 0,0.602 0.489,1.09 1.091,1.09 H 0 c 0.602,0 1.091,-0.488 1.091,-1.09 C 1.091,0.488 0.602,0 0,0" /></g><g
             transform="translate(59.6263,13.4598)"
             id="g146"><path
               inkscape:connector-curvature="0"
               id="path148"
               style="fill:#ffffff;fill-opacity:1;fill-rule:nonzero;stroke:none"
               d="m 0,0 h -4.958 c -0.602,0 -1.091,0.488 -1.091,1.091 0,0.602 0.489,1.09 1.091,1.09 H 0 c 0.602,0 1.091,-0.488 1.091,-1.09 C 1.091,0.488 0.602,0 0,0" /></g></g></g></g></g></svg>